<mxfile host="app.diagrams.net" agent="Mozilla/5.0 (Macintosh; Intel Mac OS X 10_15_7) AppleWebKit/537.36 (KHTML, like Gecko) Chrome/139.0.0.0 Safari/537.36" version="28.2.0">
  <diagram name="Page-1" id="aj6ILeAGqi16sulw5opv">
    <mxGraphModel grid="0" page="1" gridSize="10" guides="1" tooltips="1" connect="1" arrows="1" fold="1" pageScale="1" pageWidth="850" pageHeight="1100" math="0" shadow="0">
      <root>
        <mxCell id="0" />
        <mxCell id="1" parent="0" />
        <mxCell id="lmlzSXmy3zsbeizYmBdr-24" value="&lt;b&gt;&lt;font style=&quot;font-size: 13px;&quot;&gt;Population (replenish + expire)&lt;/font&gt;&lt;/b&gt;" style="text;html=1;align=center;verticalAlign=middle;resizable=0;points=[];autosize=1;strokeColor=none;fillColor=none;" vertex="1" parent="1">
          <mxGeometry x="310" y="195" width="210" height="30" as="geometry" />
        </mxCell>
        <mxCell id="lmlzSXmy3zsbeizYmBdr-26" value="&lt;b&gt;&lt;font style=&quot;font-size: 13px;&quot;&gt;Random selection (roulette wheel)&lt;/font&gt;&lt;/b&gt;" style="text;html=1;align=center;verticalAlign=middle;resizable=0;points=[];autosize=1;strokeColor=none;fillColor=none;" vertex="1" parent="1">
          <mxGeometry x="280" y="345" width="240" height="30" as="geometry" />
        </mxCell>
        <mxCell id="lmlzSXmy3zsbeizYmBdr-82" value="" style="edgeStyle=orthogonalEdgeStyle;rounded=0;orthogonalLoop=1;jettySize=auto;html=1;strokeWidth=2;entryX=0.504;entryY=-0.133;entryDx=0;entryDy=0;entryPerimeter=0;" edge="1" parent="1" target="lmlzSXmy3zsbeizYmBdr-68">
          <mxGeometry relative="1" as="geometry">
            <mxPoint x="390" y="480" as="sourcePoint" />
            <mxPoint x="390" y="520" as="targetPoint" />
          </mxGeometry>
        </mxCell>
        <mxCell id="lmlzSXmy3zsbeizYmBdr-46" value="&lt;b&gt;&lt;font style=&quot;font-size: 13px;&quot;&gt;Interaction (chemical recombine)&lt;/font&gt;&lt;/b&gt;" style="text;html=1;align=center;verticalAlign=middle;resizable=0;points=[];autosize=1;strokeColor=none;fillColor=none;" vertex="1" parent="1">
          <mxGeometry x="279" y="451" width="222" height="28" as="geometry" />
        </mxCell>
        <mxCell id="lmlzSXmy3zsbeizYmBdr-68" value="&lt;b&gt;&lt;font style=&quot;font-size: 13px;&quot;&gt;New Population&lt;/font&gt;&lt;/b&gt;" style="text;html=1;align=center;verticalAlign=middle;resizable=0;points=[];autosize=1;strokeColor=none;fillColor=none;" vertex="1" parent="1">
          <mxGeometry x="330" y="550" width="120" height="30" as="geometry" />
        </mxCell>
        <mxCell id="lmlzSXmy3zsbeizYmBdr-70" value="" style="endArrow=classic;html=1;rounded=1;strokeWidth=2;curved=0;" edge="1" parent="1">
          <mxGeometry width="50" height="50" relative="1" as="geometry">
            <mxPoint x="310" y="570" as="sourcePoint" />
            <mxPoint x="310" y="210" as="targetPoint" />
            <Array as="points">
              <mxPoint x="280" y="570" />
              <mxPoint x="280" y="490" />
              <mxPoint x="280" y="440" />
              <mxPoint x="280" y="210" />
            </Array>
          </mxGeometry>
        </mxCell>
        <mxCell id="lmlzSXmy3zsbeizYmBdr-83" value="" style="edgeStyle=orthogonalEdgeStyle;rounded=0;orthogonalLoop=1;jettySize=auto;html=1;strokeWidth=2;" edge="1" parent="1">
          <mxGeometry relative="1" as="geometry">
            <mxPoint x="389.5" y="380" as="sourcePoint" />
            <mxPoint x="390" y="443" as="targetPoint" />
          </mxGeometry>
        </mxCell>
        <mxCell id="lmlzSXmy3zsbeizYmBdr-95" value="&lt;b&gt;&lt;font style=&quot;font-size: 10px;&quot;&gt;S=20&lt;/font&gt;&lt;/b&gt;" style="text;html=1;align=center;verticalAlign=middle;resizable=0;points=[];autosize=1;strokeColor=none;fillColor=none;" vertex="1" parent="1">
          <mxGeometry x="530" y="260" width="50" height="30" as="geometry" />
        </mxCell>
        <mxCell id="lmlzSXmy3zsbeizYmBdr-96" value="&lt;b&gt;&lt;font style=&quot;font-size: 10px;&quot;&gt;S=15&lt;/font&gt;&lt;/b&gt;" style="text;html=1;align=center;verticalAlign=middle;resizable=0;points=[];autosize=1;strokeColor=none;fillColor=none;" vertex="1" parent="1">
          <mxGeometry x="595" y="260" width="50" height="30" as="geometry" />
        </mxCell>
        <mxCell id="lmlzSXmy3zsbeizYmBdr-97" value="&lt;b&gt;&lt;font style=&quot;font-size: 10px;&quot;&gt;S=10&lt;/font&gt;&lt;/b&gt;" style="text;html=1;align=center;verticalAlign=middle;resizable=0;points=[];autosize=1;strokeColor=none;fillColor=none;" vertex="1" parent="1">
          <mxGeometry x="655" y="260" width="50" height="30" as="geometry" />
        </mxCell>
        <mxCell id="lmlzSXmy3zsbeizYmBdr-105" value="&lt;span style=&quot;font-size: 13px;&quot;&gt;&lt;b&gt;Chemical stability drives abundance&lt;/b&gt;&lt;/span&gt;" style="text;html=1;align=center;verticalAlign=middle;resizable=0;points=[];autosize=1;strokeColor=none;fillColor=none;" vertex="1" parent="1">
          <mxGeometry x="277" y="261" width="243" height="28" as="geometry" />
        </mxCell>
        <mxCell id="lmlzSXmy3zsbeizYmBdr-107" value="" style="edgeStyle=orthogonalEdgeStyle;rounded=0;orthogonalLoop=1;jettySize=auto;html=1;strokeWidth=2;" edge="1" parent="1">
          <mxGeometry relative="1" as="geometry">
            <mxPoint x="389.5" y="295" as="sourcePoint" />
            <mxPoint x="390" y="345" as="targetPoint" />
          </mxGeometry>
        </mxCell>
        <mxCell id="lmlzSXmy3zsbeizYmBdr-108" value="" style="edgeStyle=orthogonalEdgeStyle;rounded=0;orthogonalLoop=1;jettySize=auto;html=1;strokeWidth=2;" edge="1" parent="1">
          <mxGeometry relative="1" as="geometry">
            <mxPoint x="389.5" y="225" as="sourcePoint" />
            <mxPoint x="390" y="265" as="targetPoint" />
          </mxGeometry>
        </mxCell>
        <mxCell id="lmlzSXmy3zsbeizYmBdr-112" value="&lt;b&gt;CCO&lt;/b&gt;" style="text;whiteSpace=wrap;html=1;fillColor=#fff2cc;strokeColor=#d6b656;align=center;" vertex="1" parent="1">
          <mxGeometry x="535" y="170" width="40" height="30" as="geometry" />
        </mxCell>
        <mxCell id="lmlzSXmy3zsbeizYmBdr-115" value="&lt;b&gt;CCO&lt;/b&gt;" style="text;whiteSpace=wrap;html=1;fillColor=#fff2cc;strokeColor=#d6b656;align=center;" vertex="1" parent="1">
          <mxGeometry x="535" y="200" width="40" height="30" as="geometry" />
        </mxCell>
        <mxCell id="lmlzSXmy3zsbeizYmBdr-116" value="&lt;b&gt;CCO&lt;/b&gt;" style="text;whiteSpace=wrap;html=1;fillColor=#fff2cc;strokeColor=#d6b656;align=center;" vertex="1" parent="1">
          <mxGeometry x="535" y="230" width="40" height="30" as="geometry" />
        </mxCell>
        <mxCell id="lmlzSXmy3zsbeizYmBdr-119" value="&lt;b&gt;C=O&lt;/b&gt;" style="text;whiteSpace=wrap;html=1;fillColor=#d5e8d4;strokeColor=#82b366;align=center;" vertex="1" parent="1">
          <mxGeometry x="600" y="170" width="40" height="30" as="geometry" />
        </mxCell>
        <mxCell id="lmlzSXmy3zsbeizYmBdr-121" value="&lt;b&gt;C=O&lt;/b&gt;" style="text;whiteSpace=wrap;html=1;fillColor=#d5e8d4;strokeColor=#82b366;align=center;" vertex="1" parent="1">
          <mxGeometry x="600" y="200" width="40" height="30" as="geometry" />
        </mxCell>
        <mxCell id="lmlzSXmy3zsbeizYmBdr-123" value="&lt;b&gt;NHâ‚‚&lt;/b&gt;" style="text;whiteSpace=wrap;html=1;fillColor=#f8cecc;strokeColor=#b85450;align=center;" vertex="1" parent="1">
          <mxGeometry x="660" y="170" width="40" height="30" as="geometry" />
        </mxCell>
        <mxCell id="lmlzSXmy3zsbeizYmBdr-127" value="&lt;b&gt;CCO&lt;/b&gt;" style="text;whiteSpace=wrap;html=1;fillColor=#fff2cc;strokeColor=#d6b656;align=center;" vertex="1" parent="1">
          <mxGeometry x="520" y="450" width="40" height="30" as="geometry" />
        </mxCell>
        <mxCell id="lmlzSXmy3zsbeizYmBdr-128" value="&lt;b&gt;C=O&lt;/b&gt;" style="text;whiteSpace=wrap;html=1;fillColor=#d5e8d4;strokeColor=#82b366;align=center;" vertex="1" parent="1">
          <mxGeometry x="595" y="450" width="40" height="30" as="geometry" />
        </mxCell>
        <mxCell id="lmlzSXmy3zsbeizYmBdr-130" value="&lt;b&gt;CCOC=O&lt;/b&gt;" style="text;whiteSpace=wrap;html=1;fillColor=#dae8fc;strokeColor=#6c8ebf;align=center;" vertex="1" parent="1">
          <mxGeometry x="670" y="450" width="60" height="30" as="geometry" />
        </mxCell>
        <mxCell id="lmlzSXmy3zsbeizYmBdr-144" value="" style="group" connectable="0" vertex="1" parent="1">
          <mxGeometry x="560" y="540" width="175" height="120" as="geometry" />
        </mxCell>
        <mxCell id="lmlzSXmy3zsbeizYmBdr-132" value="&lt;b&gt;&lt;font style=&quot;font-size: 10px;&quot;&gt;S=20&lt;/font&gt;&lt;/b&gt;" style="text;html=1;align=center;verticalAlign=middle;resizable=0;points=[];autosize=1;strokeColor=none;fillColor=none;" vertex="1" parent="lmlzSXmy3zsbeizYmBdr-144">
          <mxGeometry y="90" width="50" height="30" as="geometry" />
        </mxCell>
        <mxCell id="lmlzSXmy3zsbeizYmBdr-133" value="&lt;b&gt;&lt;font style=&quot;font-size: 10px;&quot;&gt;S=15&lt;/font&gt;&lt;/b&gt;" style="text;html=1;align=center;verticalAlign=middle;resizable=0;points=[];autosize=1;strokeColor=none;fillColor=none;" vertex="1" parent="lmlzSXmy3zsbeizYmBdr-144">
          <mxGeometry x="65" y="90" width="50" height="30" as="geometry" />
        </mxCell>
        <mxCell id="lmlzSXmy3zsbeizYmBdr-134" value="&lt;b&gt;&lt;font style=&quot;font-size: 10px;&quot;&gt;S=10&lt;/font&gt;&lt;/b&gt;" style="text;html=1;align=center;verticalAlign=middle;resizable=0;points=[];autosize=1;strokeColor=none;fillColor=none;" vertex="1" parent="lmlzSXmy3zsbeizYmBdr-144">
          <mxGeometry x="125" y="90" width="50" height="30" as="geometry" />
        </mxCell>
        <mxCell id="lmlzSXmy3zsbeizYmBdr-135" value="&lt;b&gt;CCO&lt;/b&gt;" style="text;whiteSpace=wrap;html=1;fillColor=#fff2cc;strokeColor=#d6b656;align=center;" vertex="1" parent="lmlzSXmy3zsbeizYmBdr-144">
          <mxGeometry x="5" width="40" height="30" as="geometry" />
        </mxCell>
        <mxCell id="lmlzSXmy3zsbeizYmBdr-136" value="&lt;b&gt;CCO&lt;/b&gt;" style="text;whiteSpace=wrap;html=1;fillColor=#fff2cc;strokeColor=#d6b656;align=center;" vertex="1" parent="lmlzSXmy3zsbeizYmBdr-144">
          <mxGeometry x="5" y="30" width="40" height="30" as="geometry" />
        </mxCell>
        <mxCell id="lmlzSXmy3zsbeizYmBdr-137" value="&lt;b&gt;CCO&lt;/b&gt;" style="text;whiteSpace=wrap;html=1;fillColor=#fff2cc;strokeColor=#d6b656;align=center;" vertex="1" parent="lmlzSXmy3zsbeizYmBdr-144">
          <mxGeometry x="5" y="60" width="40" height="30" as="geometry" />
        </mxCell>
        <mxCell id="lmlzSXmy3zsbeizYmBdr-138" value="&lt;b&gt;C=O&lt;/b&gt;" style="text;whiteSpace=wrap;html=1;fillColor=#d5e8d4;strokeColor=#82b366;align=center;" vertex="1" parent="lmlzSXmy3zsbeizYmBdr-144">
          <mxGeometry x="70" width="40" height="30" as="geometry" />
        </mxCell>
        <mxCell id="lmlzSXmy3zsbeizYmBdr-139" value="&lt;b&gt;C=O&lt;/b&gt;" style="text;whiteSpace=wrap;html=1;fillColor=#d5e8d4;strokeColor=#82b366;align=center;" vertex="1" parent="lmlzSXmy3zsbeizYmBdr-144">
          <mxGeometry x="70" y="30" width="40" height="30" as="geometry" />
        </mxCell>
        <mxCell id="lmlzSXmy3zsbeizYmBdr-140" value="&lt;b&gt;NHâ‚‚&lt;/b&gt;" style="text;whiteSpace=wrap;html=1;fillColor=#f8cecc;strokeColor=#b85450;align=center;" vertex="1" parent="lmlzSXmy3zsbeizYmBdr-144">
          <mxGeometry x="130" width="40" height="30" as="geometry" />
        </mxCell>
        <mxCell id="lmlzSXmy3zsbeizYmBdr-145" value="&lt;b&gt;CCOC=O&lt;/b&gt;" style="text;whiteSpace=wrap;html=1;fillColor=#dae8fc;strokeColor=#6c8ebf;align=center;" vertex="1" parent="1">
          <mxGeometry x="485" y="540" width="60" height="30" as="geometry" />
        </mxCell>
        <mxCell id="lmlzSXmy3zsbeizYmBdr-146" value="&lt;b&gt;&lt;font style=&quot;font-size: 10px;&quot;&gt;S=50&lt;/font&gt;&lt;/b&gt;" style="text;html=1;align=center;verticalAlign=middle;resizable=0;points=[];autosize=1;strokeColor=none;fillColor=none;" vertex="1" parent="1">
          <mxGeometry x="490" y="630" width="50" height="30" as="geometry" />
        </mxCell>
        <mxCell id="lmlzSXmy3zsbeizYmBdr-148" value="" style="group" connectable="0" vertex="1" parent="1">
          <mxGeometry x="539.9965654509248" y="289.2865654509247" width="141.4213562373095" height="141.4213562373095" as="geometry" />
        </mxCell>
        <mxCell id="lmlzSXmy3zsbeizYmBdr-10" value="" style="verticalLabelPosition=bottom;verticalAlign=top;html=1;shape=mxgraph.basic.pie;fillColor=#f8cecc;strokeColor=#b85450;startAngle=0.32447487305652417;endAngle=0.5019408177305096;rotation=135;" vertex="1" parent="lmlzSXmy3zsbeizYmBdr-148">
          <mxGeometry x="20.710678118654755" y="20.710678118654755" width="100" height="100" as="geometry" />
        </mxCell>
        <mxCell id="lmlzSXmy3zsbeizYmBdr-147" value="" style="group" connectable="0" vertex="1" parent="lmlzSXmy3zsbeizYmBdr-148">
          <mxGeometry x="9.476190979495755" y="9.476190979495868" width="122.47448713915901" height="122.4744871391589" as="geometry" />
        </mxCell>
        <mxCell id="lmlzSXmy3zsbeizYmBdr-4" value="" style="verticalLabelPosition=bottom;verticalAlign=top;html=1;shape=mxgraph.basic.pie;fillColor=#fff2cc;strokeColor=#d6b656;startAngle=0.2;endAngle=0.7110104348113153;" vertex="1" parent="lmlzSXmy3zsbeizYmBdr-147">
          <mxGeometry x="11.237243569579505" y="11.237243569579448" width="100" height="100" as="geometry" />
        </mxCell>
        <mxCell id="lmlzSXmy3zsbeizYmBdr-5" value="" style="verticalLabelPosition=bottom;verticalAlign=top;html=1;shape=mxgraph.basic.pie;fillColor=#d5e8d4;strokeColor=#82b366;startAngle=0.16773663431570437;endAngle=0.5019408177305096;rotation=-105;" vertex="1" parent="lmlzSXmy3zsbeizYmBdr-147">
          <mxGeometry x="11.237243569579505" y="11.237243569579448" width="100" height="100" as="geometry" />
        </mxCell>
        <mxCell id="lmlzSXmy3zsbeizYmBdr-14" value="CCO&lt;div&gt;50%&lt;/div&gt;" style="shape=rect;strokeWidth=0;fontStyle=1;html=1;whiteSpace=wrap;align=center;fillColor=#fff2cc;strokeColor=#d6b656;" vertex="1" parent="lmlzSXmy3zsbeizYmBdr-147">
          <mxGeometry x="36.237243569579505" y="71.23724356957945" width="50" height="30" as="geometry" />
        </mxCell>
        <mxCell id="lmlzSXmy3zsbeizYmBdr-15" value="" style="align=left;html=1;verticalAlign=middle;labelPosition=right;verticalLabelPosition=middle;labelBackgroundColor=none;fontSize=10" connectable="0" vertex="1" parent="lmlzSXmy3zsbeizYmBdr-14">
          <mxGeometry x="50" y="15" as="geometry" />
        </mxCell>
        <mxCell id="lmlzSXmy3zsbeizYmBdr-21" value="NH&lt;span style=&quot;font-weight: 400;&quot;&gt;â‚‚&lt;/span&gt;&lt;br&gt;&lt;div&gt;&amp;nbsp;17%&lt;/div&gt;" style="shape=rect;strokeWidth=0;fontStyle=1;html=1;whiteSpace=wrap;align=center;fillColor=#f8cecc;strokeColor=#b85450;" vertex="1" parent="lmlzSXmy3zsbeizYmBdr-147">
          <mxGeometry x="16.237243569579505" y="41.23724356957945" width="20" height="20" as="geometry" />
        </mxCell>
        <mxCell id="lmlzSXmy3zsbeizYmBdr-22" value="" style="align=left;html=1;verticalAlign=middle;labelPosition=right;verticalLabelPosition=middle;labelBackgroundColor=none;fontSize=10" connectable="0" vertex="1" parent="lmlzSXmy3zsbeizYmBdr-21">
          <mxGeometry x="20" y="10" as="geometry" />
        </mxCell>
        <mxCell id="lmlzSXmy3zsbeizYmBdr-86" value="C=O&amp;nbsp; &amp;nbsp;33%" style="shape=rect;strokeWidth=0;fontStyle=1;html=1;whiteSpace=wrap;align=center;fillColor=#d5e8d4;strokeColor=#82b366;" vertex="1" parent="lmlzSXmy3zsbeizYmBdr-147">
          <mxGeometry x="46.237243569579505" y="21.237243569579448" width="45" height="20" as="geometry" />
        </mxCell>
        <mxCell id="lmlzSXmy3zsbeizYmBdr-87" value="" style="align=left;html=1;verticalAlign=middle;labelPosition=right;verticalLabelPosition=middle;labelBackgroundColor=none;fontSize=10" connectable="0" vertex="1" parent="lmlzSXmy3zsbeizYmBdr-86">
          <mxGeometry x="45" y="10" as="geometry" />
        </mxCell>
        <mxCell id="lmlzSXmy3zsbeizYmBdr-149" value="+" style="shape=rect;strokeWidth=0;fontStyle=1;html=1;whiteSpace=wrap;align=center;strokeColor=none;" vertex="1" parent="1">
          <mxGeometry x="570" y="455" width="20" height="20" as="geometry" />
        </mxCell>
        <mxCell id="lmlzSXmy3zsbeizYmBdr-150" value="" style="align=left;html=1;verticalAlign=middle;labelPosition=right;verticalLabelPosition=middle;labelBackgroundColor=none;fontSize=10" connectable="0" vertex="1" parent="lmlzSXmy3zsbeizYmBdr-149">
          <mxGeometry x="20" y="10" as="geometry" />
        </mxCell>
        <mxCell id="lmlzSXmy3zsbeizYmBdr-152" value="=" style="shape=rect;strokeWidth=0;fontStyle=1;html=1;whiteSpace=wrap;align=center;strokeColor=none;" vertex="1" parent="1">
          <mxGeometry x="645" y="455" width="20" height="20" as="geometry" />
        </mxCell>
        <mxCell id="lmlzSXmy3zsbeizYmBdr-153" value="" style="align=left;html=1;verticalAlign=middle;labelPosition=right;verticalLabelPosition=middle;labelBackgroundColor=none;fontSize=10" connectable="0" vertex="1" parent="lmlzSXmy3zsbeizYmBdr-152">
          <mxGeometry x="20" y="10" as="geometry" />
        </mxCell>
      </root>
    </mxGraphModel>
  </diagram>
</mxfile>
